<svg id="fi_5537993" enable-background="new 0 0 53 53" height="512" viewBox="0 0 53 53" width="512" xmlns="http://www.w3.org/2000/svg"><g><g><path d="m16.264061 43.6725121c-1.329855 1.3298531-6.1748552 2.7611465-8.8877583 3.4828873-.8491235.2259026-1.6237535-.5491982-1.3973665-1.3981934.7230921-2.711731 2.1564841-7.5538483 3.4862332-8.8835945 1.8773766-1.8773727 4.9216127-1.8816795 6.7988873-.0044022 1.8816895 1.881691 1.8773808 4.9259262.0000043 6.8033028z" fill="#ffc536"></path></g><g><path d="m16.2650089 40.7485008c-.6862059.6862068-3.0141954 1.4197884-4.59653 1.8578949-.6952896.1925049-1.3317432-.4442825-1.1388416-1.1394615.4388647-1.5815811 1.1734056-3.9081306 1.8595409-4.594265 1.0702324-1.0702324 2.8056536-1.0726852 3.8758268-.0025101 1.0726911 1.0726929 1.0702363 2.8081131.0000039 3.8783417z" fill="#f34624"></path></g><g><path d="m21.6853905 38.7671928-2.3075275 2.3075256c-.3905239.3905258-1.0236893.3905258-1.4142132 0l-5.9006853-5.900692c-.3905239-.3905258-.3905239-1.0236893 0-1.4142151l2.3075285-2.3075237z" fill="#2c3642"></path></g><g><g><path d="m32.7732887 45.0583801c-3.263567 2.6780319-7.7890701 4.561306-12.3467102 5.1888771-.989502.1362534-1.6451607-.9619865-1.0729923-1.7807083 2.4367085-3.4867096 3.9042835-7.3257103 4.347332-11.0683403l12.34902-9.0765476c2.7125778 5.8128452 2.6050415 11.9142437-3.2766495 16.7367191z" fill="#f34624"></path></g><g><path d="m24.5405178 16.8122272-9.0765638 12.3490086c-3.7391033.446661-7.5806189 1.9118557-11.0682793 4.3477669-.8188803.5719337-1.9169352-.0839424-1.7804587-1.07341.6284962-4.5566711 2.5142262-9.0795956 5.1886835-12.3466301 4.8224805-5.8816863 10.9280856-5.9850102 16.7366183-3.2767354z" fill="#f34624"></path></g></g><g><path d="m38.4519806 30.3172607-15.5299702 9.9760818c-.7913818.5083656-1.8300552.3965912-2.4951572-.2685127l-7.3166227-7.3166275c-.665102-.6651001-.7768764-1.7037754-.2685108-2.4951572l9.9760942-15.5299616c1.0182362-1.583869 2.1920567-3.0405493 3.4860306-4.3345232 5.3879776-5.3879728 12.9296837-8.178113 20.6038017-7.5096855 1.8114433.1577795 3.2376404 1.5893457 3.3934631 3.4009578.818161 9.5119718-3.6763496 18.8253034-11.8491287 24.0774281z" fill="#ededed"></path></g><g><path d="m49.1353188 16.4206161c1.0457268-3.2413664 1.4655685-6.6970577 1.1657486-10.1815357-.1557999-1.8111849-1.5816231-3.2423606-3.3926353-3.4001489-3.4899178-.3040533-6.9499664.1142783-10.1950035 1.1597877z" fill="#f34624"></path></g><g><path d="m39.146534 23.2892437c-2.57407 2.5740662-6.7346878 2.5740623-9.300703.0080471-2.5740681-2.57407-2.5740681-6.7346897 0-9.3087559 2.5660114-2.5660124 6.7266331-2.5660095 9.3006992.0080605 2.5660171 2.5660152 2.5660171 6.7266369.0000038 9.2926483z" fill="#2c3642"></path></g><g><ellipse cx="34.499" cy="18.643" fill="#00aeff" rx="5.05" ry="5.05" transform="matrix(.993 -.12 .12 .993 -1.992 4.286)"></ellipse></g></g></svg>